<svg width="18" height="18" viewBox="0 0 18 18" fill="none" xmlns="http://www.w3.org/2000/svg">
<path d="M17.25 2.7403H13.5V2.05522C13.5 1.51014 13.2629 0.987389 12.841 0.601961C12.419 0.216532 11.8467 0 11.25 0H6.75C6.15326 0 5.58097 0.216532 5.15901 0.601961C4.73705 0.987389 4.5 1.51014 4.5 2.05522V2.7403H0.75C0.551088 2.7403 0.360322 2.81247 0.21967 2.94095C0.0790178 3.06943 0 3.24368 0 3.42537C0 3.60706 0.0790178 3.78131 0.21967 3.90979C0.360322 4.03827 0.551088 4.11044 0.75 4.11044H1.5V16.4418C1.5 16.8052 1.65804 17.1537 1.93934 17.4106C2.22064 17.6676 2.60218 17.8119 3 17.8119H15C15.3978 17.8119 15.7794 17.6676 16.0607 17.4106C16.342 17.1537 16.5 16.8052 16.5 16.4418V4.11044H17.25C17.4489 4.11044 17.6397 4.03827 17.7803 3.90979C17.921 3.78131 18 3.60706 18 3.42537C18 3.24368 17.921 3.06943 17.7803 2.94095C17.6397 2.81247 17.4489 2.7403 17.25 2.7403ZM7.5 13.0164C7.5 13.1981 7.42098 13.3723 7.28033 13.5008C7.13968 13.6293 6.94891 13.7015 6.75 13.7015C6.55109 13.7015 6.36032 13.6293 6.21967 13.5008C6.07902 13.3723 6 13.1981 6 13.0164V7.53581C6 7.35412 6.07902 7.17987 6.21967 7.05139C6.36032 6.92292 6.55109 6.85074 6.75 6.85074C6.94891 6.85074 7.13968 6.92292 7.28033 7.05139C7.42098 7.17987 7.5 7.35412 7.5 7.53581V13.0164ZM12 13.0164C12 13.1981 11.921 13.3723 11.7803 13.5008C11.6397 13.6293 11.4489 13.7015 11.25 13.7015C11.0511 13.7015 10.8603 13.6293 10.7197 13.5008C10.579 13.3723 10.5 13.1981 10.5 13.0164V7.53581C10.5 7.35412 10.579 7.17987 10.7197 7.05139C10.8603 6.92292 11.0511 6.85074 11.25 6.85074C11.4489 6.85074 11.6397 6.92292 11.7803 7.05139C11.921 7.17987 12 7.35412 12 7.53581V13.0164ZM12 2.7403H6V2.05522C6 1.87353 6.07902 1.69928 6.21967 1.5708C6.36032 1.44233 6.55109 1.37015 6.75 1.37015H11.25C11.4489 1.37015 11.6397 1.44233 11.7803 1.5708C11.921 1.69928 12 1.87353 12 2.05522V2.7403Z" fill="#9D0000"/>
</svg>
